<svg width="50" height="50" viewBox="0 0 50 50" fill="none" xmlns="http://www.w3.org/2000/svg">
<rect width="50" height="50" fill="#6FCF97"/>
<path d="M37.1953 30.2461C36.8438 32.0299 36.3945 33.5013 35.8477 34.6602C35.3008 35.806 34.7474 36.7109 34.1875 37.375C33.6276 38.0391 33.1003 38.5013 32.6055 38.7617C32.1237 39.0221 31.7591 39.1523 31.5117 39.1523C31.1211 39.1523 30.6198 38.9831 30.0078 38.6445C29.3958 38.306 28.7188 37.8698 27.9766 37.3359C27.2474 36.8021 26.4857 36.2031 25.6914 35.5391C24.9102 34.862 24.1549 34.1914 23.4258 33.5273C22.6966 32.8633 22.026 32.2383 21.4141 31.6523C20.8021 31.0664 20.3073 30.5846 19.9297 30.207L20.0859 35.0312L24.207 37.3164L11.8047 38.1953L15.9648 34.3672L16.6875 14.7188L11.6094 12.2773C14.1484 12.1341 16.3034 12.0299 18.0742 11.9648C19.8451 11.8867 21.3099 11.8346 22.4688 11.8086C23.6276 11.7826 24.5195 11.7695 25.1445 11.7695C25.7695 11.7695 26.2122 11.7695 26.4727 11.7695C27.0326 11.7695 27.638 11.8216 28.2891 11.9258C28.9531 12.0169 29.6107 12.1797 30.2617 12.4141C30.9128 12.6354 31.5443 12.9219 32.1562 13.2734C32.7682 13.625 33.3086 14.0547 33.7773 14.5625C34.2461 15.0703 34.6172 15.6628 34.8906 16.3398C35.1771 17.0039 35.3203 17.7591 35.3203 18.6055C35.3203 18.8008 35.2943 19.0742 35.2422 19.4258C35.2031 19.7643 35.112 20.1615 34.9688 20.6172C34.8255 21.0599 34.6107 21.5352 34.3242 22.043C34.0378 22.5378 33.6471 23.0391 33.1523 23.5469C32.6706 24.0417 32.0716 24.5234 31.3555 24.9922C30.6393 25.4609 29.7734 25.8776 28.7578 26.2422C27.7552 26.6068 26.5833 26.9062 25.2422 27.1406C23.9141 27.362 22.3906 27.4857 20.6719 27.5117C21.5182 28.1497 22.4362 28.8333 23.4258 29.5625C24.4154 30.2786 25.418 30.9427 26.4336 31.5547C27.4492 32.1536 28.4453 32.6549 29.4219 33.0586C30.3984 33.4492 31.3099 33.6445 32.1562 33.6445C32.5599 33.6445 32.9896 33.599 33.4453 33.5078C33.9141 33.4167 34.3698 33.2474 34.8125 33C35.2682 32.7396 35.6979 32.3945 36.1016 31.9648C36.5182 31.5221 36.8828 30.9492 37.1953 30.2461ZM29.6758 19.5234C29.6758 19.1198 29.6432 18.7161 29.5781 18.3125C29.513 17.9089 29.3763 17.5247 29.168 17.1602C28.9596 16.7956 28.6602 16.4505 28.2695 16.125C27.8789 15.7995 27.3516 15.5195 26.6875 15.2852C26.0365 15.0508 25.2292 14.8685 24.2656 14.7383C23.3021 14.5951 22.1497 14.5234 20.8086 14.5234C20.6003 14.5234 20.3984 14.5234 20.2031 14.5234C20.0078 14.5234 19.806 14.5365 19.5977 14.5625L19.793 24.9922C20.6133 24.9792 21.4271 24.9141 22.2344 24.7969C23.0417 24.6667 23.8099 24.4909 24.5391 24.2695C25.2682 24.0482 25.9453 23.7812 26.5703 23.4688C27.2083 23.1562 27.7552 22.8047 28.2109 22.4141C28.6667 22.0104 29.0247 21.5677 29.2852 21.0859C29.5456 20.6042 29.6758 20.0833 29.6758 19.5234Z" fill="#ED2F51" fill-opacity="0.88"/>
</svg>
